# xmcd CD database file
#
# Track frame offsets:
#	150
#	23648
#	56690
#	94621
#	109712
#	132362
#	167757
#	188815
#	204395
#	225679
#	255944
#	285758
#	327178
#
# Disc length: 4788 seconds
#
# Revision: 0
# Processed by: cddbd v1.5.2PL0 Copyright (c) Steve Scherf et al.
# Submitted via: CDex 1.70beta2
#
DISCID=a212b20d
DTITLE=Flavio Sala - Da La Buena Onda
DYEAR=2011
DGENRE=Guitar
TTITLE0=De La Buena Onda (Samba)
TTITLE1=Cancion De Amor
TTITLE2=The Heat Of The Day - The Heat Of The Night
TTITLE3=Schindler's List
TTITLE4=Volver (to Maura)
TTITLE5=Il Giro Del Giorno In 82 Mondi
TTITLE6=Um A Zero (Choro)
TTITLE7=Cinema Paradiso
TTITLE8=Malafemmina (Bolero)
TTITLE9=From Within
TTITLE10=Overture from "La Gazza Ladra"
TTITLE11=Adagio Assai
TTITLE12=De La Buena Onda (Samba Remix)
EXTD=YEAR: 2011
EXTT0=
EXTT1=
EXTT2=
EXTT3=
EXTT4=
EXTT5=
EXTT6=
EXTT7=
EXTT8=
EXTT9=
EXTT10=
EXTT11=
EXTT12=
PLAYORDER=
